HIERARCHY
ROOT Hips
{
	OFFSET 0.000000 83.214638 0.000000
	CHANNELS 6 Xposition Yposition Zposition Xrotation Yrotation Zrotation
	JOINT Pelvis
	{
		OFFSET 0.000000 0.000000 0.000000
		CHANNELS 3 Xrotation Yrotation Zrotation
		JOINT LeftUpLeg
		{
			OFFSET 8.479700 -4.795502 -0.379100
			CHANNELS 3 Xrotation Yrotation Zrotation
			JOINT LeftLeg
			{
				OFFSET 0.024144 -32.555107 0.112900
				CHANNELS 3 Xrotation Yrotation Zrotation
				JOINT LeftFoot
				{
					OFFSET -0.024144 -32.638630 -3.012600
					CHANNELS 3 Xrotation Yrotation Zrotation
					JOINT LeftToeBase
					{
						OFFSET 0.970200 -13.225400 11.864200
						CHANNELS 3 Xrotation Yrotation Zrotation
						End Site
						{
							OFFSET 0.000000 12.319262 0.000000
						}
					}
					JOINT LFootTongue
					{
						OFFSET 1.142400 -1.059800 6.665200
						CHANNELS 3 Xrotation Yrotation Zrotation
						End Site
						{
							OFFSET 0.000000 12.319262 0.000000
						}
					}
				}
				JOINT LeftPantLeg
				{
					OFFSET 0.918482 -16.533964 -2.284700
					CHANNELS 3 Xrotation Yrotation Zrotation
					End Site
					{
						OFFSET 0.350399 24.744368 0.000000
					}
				}
			}
		}
		JOINT RightUpLeg
		{
			OFFSET -8.479700 -4.795502 -0.379100
			CHANNELS 3 Xrotation Yrotation Zrotation
			JOINT RightLeg
			{
				OFFSET -0.023144 -32.555092 0.112900
				CHANNELS 3 Xrotation Yrotation Zrotation
				JOINT RightFoot
				{
					OFFSET 0.023144 -32.638641 -3.012700
					CHANNELS 3 Xrotation Yrotation Zrotation
					JOINT RightToeBase
					{
						OFFSET -0.970200 -13.225400 11.864200
						CHANNELS 3 Xrotation Yrotation Zrotation
						End Site
						{
							OFFSET 0.000000 12.319244 0.000000
						}
					}
					JOINT RFootTongue
					{
						OFFSET -1.142200 -1.059800 6.665200
						CHANNELS 3 Xrotation Yrotation Zrotation
						End Site
						{
							OFFSET 0.000000 12.319243 0.000000
						}
					}
				}
				JOINT RightPantLeg
				{
					OFFSET -0.919482 -16.533978 -2.284800
					CHANNELS 3 Xrotation Yrotation Zrotation
					End Site
					{
						OFFSET -0.350400 24.744419 0.000000
					}
				}
			}
		}
	}
	JOINT Spine
	{
		OFFSET 0.000000 7.722000 1.166200
		CHANNELS 3 Xrotation Yrotation Zrotation
		JOINT Spine1
		{
			OFFSET 0.000000 12.024101 0.248800
			CHANNELS 3 Xrotation Yrotation Zrotation
			JOINT Spine2
			{
				OFFSET 0.000000 11.502998 -0.491200
				CHANNELS 3 Xrotation Yrotation Zrotation
				JOINT Neck
				{
					OFFSET 0.000000 18.430702 -3.123100
					CHANNELS 3 Xrotation Yrotation Zrotation
					JOINT Head
					{
						OFFSET 0.000000 9.051102 1.034000
						CHANNELS 3 Xrotation Yrotation Zrotation
						JOINT HairB
						{
							OFFSET 0.208400 24.786102 24.822300
							CHANNELS 3 Xrotation Yrotation Zrotation
							End Site
							{
								OFFSET 0.000000 32.263779 0.000000
							}
						}
						JOINT HairA
						{
							OFFSET -7.081100 24.428299 23.196600
							CHANNELS 3 Xrotation Yrotation Zrotation
							End Site
							{
								OFFSET 0.000000 32.263779 0.000000
							}
						}
						JOINT Hat
						{
							OFFSET 16.728800 15.048294 -15.439601
							CHANNELS 3 Xrotation Yrotation Zrotation
							End Site
							{
								OFFSET 0.000000 32.263779 0.000000
							}
						}
					}
				}
				JOINT LeftShoulder
				{
					OFFSET 6.197800 13.665199 -4.064700
					CHANNELS 3 Xrotation Yrotation Zrotation
					JOINT LeftArm
					{
						OFFSET 7.778100 -0.187103 -1.709300
						CHANNELS 3 Xrotation Yrotation Zrotation
						JOINT LeftForeArm
						{
							OFFSET 22.049376 0.000000 0.000000
							CHANNELS 3 Xrotation Yrotation Zrotation
							JOINT LeftHand
							{
								OFFSET 23.009392 0.000000 0.000000
								CHANNELS 3 Xrotation Yrotation Zrotation
								JOINT LeftHandThumb1
								{
									OFFSET 3.507191 -2.063065 3.133727
									CHANNELS 3 Xrotation Yrotation Zrotation
									JOINT LeftHandThumb2
									{
										OFFSET 3.101337 -1.790558 1.790558
										CHANNELS 3 Xrotation Yrotation Zrotation
										JOINT LeftHandThumb3
										{
											OFFSET 3.058640 -1.765907 1.765906
											CHANNELS 3 Xrotation Yrotation Zrotation
											End Site
											{
												OFFSET -0.415260 3.926476 -0.049563
											}
										}
									}
								}
								JOINT LeftHandIndex1
								{
									OFFSET 11.334419 -0.901459 3.706815
									CHANNELS 3 Xrotation Yrotation Zrotation
									JOINT LeftHandIndex2
									{
										OFFSET 3.283112 0.000000 0.000000
										CHANNELS 3 Xrotation Yrotation Zrotation
										JOINT LeftHandIndex3
										{
											OFFSET 3.323853 0.000000 0.000000
											CHANNELS 3 Xrotation Yrotation Zrotation
											End Site
											{
												OFFSET -1.135597 3.097809 0.402452
											}
										}
									}
								}
								JOINT LeftHandMiddle1
								{
									OFFSET 11.335861 0.000000 0.000000
									CHANNELS 3 Xrotation Yrotation Zrotation
									JOINT LeftHandMiddle2
									{
										OFFSET 3.410492 0.000000 0.000000
										CHANNELS 3 Xrotation Yrotation Zrotation
										JOINT LeftHandMiddle3
										{
											OFFSET 3.312172 0.000000 0.000000
											CHANNELS 3 Xrotation Yrotation Zrotation
											End Site
											{
												OFFSET -1.150200 3.080154 0.400270
											}
										}
									}
								}
								JOINT LeftHandRing1
								{
									OFFSET 11.514786 -0.013176 -3.003090
									CHANNELS 3 Xrotation Yrotation Zrotation
									JOINT LeftHandRing2
									{
										OFFSET 3.053307 0.000000 0.000000
										CHANNELS 3 Xrotation Yrotation Zrotation
										JOINT LeftHandRing3
										{
											OFFSET 3.295807 0.000000 0.000000
											CHANNELS 3 Xrotation Yrotation Zrotation
											End Site
											{
												OFFSET -1.281006 3.013344 0.375733
											}
										}
									}
								}
								JOINT LeftHandPinky1
								{
									OFFSET 10.518692 -0.960396 -5.730441
									CHANNELS 3 Xrotation Yrotation Zrotation
									JOINT LeftHandPinky2
									{
										OFFSET 2.861649 0.000000 0.000000
										CHANNELS 3 Xrotation Yrotation Zrotation
										JOINT LeftHandPinky3
										{
											OFFSET 2.863380 0.000000 0.000000
											CHANNELS 3 Xrotation Yrotation Zrotation
											End Site
											{
												OFFSET -0.843597 2.711159 0.369971
											}
										}
									}
								}
							}
							JOINT LSleeve
							{
								OFFSET 6.676277 -0.344902 -1.011730
								CHANNELS 3 Xrotation Yrotation Zrotation
								End Site
								{
									OFFSET 0.000000 14.885353 0.000000
								}
							}
						}
					}
				}
				JOINT RightShoulder
				{
					OFFSET -6.197800 13.665199 -4.064700
					CHANNELS 3 Xrotation Yrotation Zrotation
					JOINT RightArm
					{
						OFFSET -7.778100 -0.187103 -1.709300
						CHANNELS 3 Xrotation Yrotation Zrotation
						JOINT RightForeArm
						{
							OFFSET -22.049376 0.000000 0.000000
							CHANNELS 3 Xrotation Yrotation Zrotation
							JOINT RightHand
							{
								OFFSET -23.009392 0.000000 0.000000
								CHANNELS 3 Xrotation Yrotation Zrotation
								JOINT RightHandThumb1
								{
									OFFSET -3.507191 -2.063065 3.133727
									CHANNELS 3 Xrotation Yrotation Zrotation
									JOINT RightHandThumb2
									{
										OFFSET -3.101337 -1.790558 1.790558
										CHANNELS 3 Xrotation Yrotation Zrotation
										JOINT RightHandThumb3
										{
											OFFSET -3.058640 -1.765907 1.765906
											CHANNELS 3 Xrotation Yrotation Zrotation
											End Site
											{
												OFFSET 0.415260 3.926476 -0.049563
											}
										}
									}
								}
								JOINT RightHandIndex1
								{
									OFFSET -11.334419 -0.901459 3.706815
									CHANNELS 3 Xrotation Yrotation Zrotation
									JOINT RightHandIndex2
									{
										OFFSET -3.283112 0.000000 0.000000
										CHANNELS 3 Xrotation Yrotation Zrotation
										JOINT RightHandIndex3
										{
											OFFSET -3.323853 0.000000 0.000000
											CHANNELS 3 Xrotation Yrotation Zrotation
											End Site
											{
												OFFSET 1.135597 3.097809 0.402452
											}
										}
									}
								}
								JOINT RightHandMiddle1
								{
									OFFSET -11.335861 0.000000 0.000000
									CHANNELS 3 Xrotation Yrotation Zrotation
									JOINT RightHandMiddle2
									{
										OFFSET -3.410492 0.000000 0.000000
										CHANNELS 3 Xrotation Yrotation Zrotation
										JOINT RightHandMiddle3
										{
											OFFSET -3.312172 0.000000 0.000000
											CHANNELS 3 Xrotation Yrotation Zrotation
											End Site
											{
												OFFSET 1.150200 3.080154 0.400270
											}
										}
									}
								}
								JOINT RightHandRing1
								{
									OFFSET -11.514786 -0.013176 -3.003090
									CHANNELS 3 Xrotation Yrotation Zrotation
									JOINT RightHandRing2
									{
										OFFSET -3.053307 0.000000 0.000000
										CHANNELS 3 Xrotation Yrotation Zrotation
										JOINT RightHandRing3
										{
											OFFSET -3.295807 0.000000 0.000000
											CHANNELS 3 Xrotation Yrotation Zrotation
											End Site
											{
												OFFSET 1.281006 3.013344 0.375733
											}
										}
									}
								}
								JOINT RightHandPinky1
								{
									OFFSET -10.518692 -0.960396 -5.730441
									CHANNELS 3 Xrotation Yrotation Zrotation
									JOINT RightHandPinky2
									{
										OFFSET -2.861649 0.000000 0.000000
										CHANNELS 3 Xrotation Yrotation Zrotation
										JOINT RightHandPinky3
										{
											OFFSET -2.863380 0.000000 0.000000
											CHANNELS 3 Xrotation Yrotation Zrotation
											End Site
											{
												OFFSET 0.843597 2.711159 0.369971
											}
										}
									}
								}
							}
							JOINT RSleeve
							{
								OFFSET -6.676277 -0.344902 -1.011730
								CHANNELS 3 Xrotation Yrotation Zrotation
								End Site
								{
									OFFSET 0.000000 14.885353 0.000000
								}
							}
						}
					}
				}
				JOINT Backpack
				{
					OFFSET 0.000000 -2.471497 36.677502
					CHANNELS 3 Xrotation Yrotation Zrotation
					End Site
					{
						OFFSET 0.000000 20.427315 0.000000
					}
				}
				JOINT Hood
				{
					OFFSET 0.000000 18.754097 -10.431000
					CHANNELS 3 Xrotation Yrotation Zrotation
					JOINT Hood1
					{
						OFFSET 0.000000 -5.011002 -7.685901
						CHANNELS 3 Xrotation Yrotation Zrotation
						End Site
						{
							OFFSET 0.000000 9.175140 0.000000
						}
					}
				}
				JOINT LHoodieString
				{
					OFFSET 5.250500 16.397697 3.089900
					CHANNELS 3 Xrotation Yrotation Zrotation
					JOINT LHoodieString1
					{
						OFFSET 0.257700 -6.364304 3.694600
						CHANNELS 3 Xrotation Yrotation Zrotation
						JOINT LHoodieString2
						{
							OFFSET 0.000000 -9.643799 2.679100
							CHANNELS 3 Xrotation Yrotation Zrotation
							End Site
							{
								OFFSET 0.000000 10.009018 0.000000
							}
						}
					}
				}
				JOINT RHoodieString
				{
					OFFSET -5.250500 16.397697 3.089900
					CHANNELS 3 Xrotation Yrotation Zrotation
					JOINT RHoodieString1
					{
						OFFSET -0.257700 -6.364304 3.694600
						CHANNELS 3 Xrotation Yrotation Zrotation
						JOINT RHoodieString2
						{
							OFFSET 0.000000 -9.643799 2.679100
							CHANNELS 3 Xrotation Yrotation Zrotation
							End Site
							{
								OFFSET 0.000000 10.009018 0.000000
							}
						}
					}
				}
			}
			JOINT LBackpack_Strap
			{
				OFFSET 15.223200 -7.719803 -6.610900
				CHANNELS 3 Xrotation Yrotation Zrotation
				End Site
				{
					OFFSET 0.000000 16.040596 0.000000
				}
			}
			JOINT RBackpack_Strap
			{
				OFFSET -15.223000 -7.719803 -6.610900
				CHANNELS 3 Xrotation Yrotation Zrotation
				End Site
				{
					OFFSET 0.000000 16.040596 0.000000
				}
			}
		}
	}
	JOINT BoyFacialAnim_Joint
	{
		OFFSET 1.000000 -82.208099 -1.550900
		CHANNELS 3 Xrotation Yrotation Zrotation
		End Site
		{
			OFFSET 0.000000 30.012791 0.000000
		}
	}
}
MOTION
Frames: 5
Frame Time: 0.016667
-0.401984 75.821342 2.620258 -13.180142 -1.763795 -5.123595 -0.000001 0.000000 -0.000000 -32.002687 20.298713 12.026843 42.613953 -9.357592 10.043477 -0.850541 -7.842835 -1.380841 -0.000000 0.000000 -0.000000 -0.000000 0.000000 -0.000000 0.000000 0.000001 -0.000000 -23.526264 -35.133455 -2.023223 39.468255 9.602035 -10.284310 -2.796242 6.606423 -5.007338 0.000000 -0.000000 0.000000 0.000000 -0.000000 0.000000 -0.000000 -0.000001 -0.000000 5.922117 -0.717366 3.090396 9.021538 -0.430000 -0.455594 9.028561 -0.103889 -0.473627 15.499586 0.680417 0.863641 -2.573560 0.818022 5.726067 -0.000003 0.000000 -0.000000 -0.000003 0.000000 -0.000000 -0.000003 0.000000 -0.000000 0.681782 3.908470 -11.397476 74.323550 -65.285496 4.646516 -0.000003 -18.010085 -0.000010 -25.659132 7.272755 -3.768728 21.734258 5.841487 -2.497395 -16.162753 18.936382 19.036132 -0.000000 0.000004 0.000003 0.152618 1.444580 -12.061562 0.086637 1.091013 -9.079582 -0.000002 0.000001 -0.000003 0.152212 1.442689 -12.045575 0.086938 1.092919 -9.095573 0.000000 -0.000001 0.000002 0.152624 1.444573 -12.061569 0.086628 1.091025 -9.079592 -0.000003 0.000001 -0.000000 0.985199 5.412792 -11.600964 0.078379 -2.964042 -9.583905 -0.000001 0.000000 -0.000000 0.000000 -0.000000 -0.000000 1.412996 0.332767 10.813720 8.850514 40.127184 57.894043 -0.000003 26.003462 -0.000001 37.130360 -9.963352 12.845709 -0.389746 -6.638711 -15.665597 8.907280 -22.771337 0.157762 -0.000001 0.000002 -0.000002 0.174544 -1.551246 12.839280 0.140307 -1.392662 11.506920 -0.000000 -0.000000 0.000002 0.174547 -1.551257 12.839287 0.140307 -1.392643 11.506923 0.000000 0.000001 -0.000002 0.174548 -1.551244 12.839286 0.140302 -1.392658 11.506923 -0.000001 0.000000 0.000000 0.174546 -1.551239 12.839279 0.140307 -1.392656 11.506916 -0.000000 -0.000001 0.000003 -0.000003 0.000001 -0.000000 0.000001 -0.000000 0.000000 0.000001 -0.000000 0.000000 0.000001 -0.000000 0.000000 0.000001 -0.000000 0.000000 0.000001 -0.000000 0.000000 0.000002 0.000000 0.000000 0.000001 -0.000000 0.000000 0.000001 -0.000000 0.000000 0.000002 0.000000 0.000000 0.000000 -0.000000 -0.000000 0.000000 -0.000000 -0.000000 -0.000001 0.000000 -0.000000 
-0.387634 75.822533 2.620445 -13.183934 -1.801892 -5.106961 -0.000001 -0.000000 -0.000000 -31.993535 20.360420 12.024789 42.604907 -9.358437 10.043668 -0.852608 -7.854494 -1.366720 0.000000 0.000000 0.000000 0.000000 0.000000 -0.000000 -0.000000 -0.000001 -0.000000 -23.535976 -35.031914 -2.016491 39.475024 9.600545 -10.285260 -2.790520 6.560083 -4.980577 -0.000000 0.000000 0.000000 -0.000000 0.000000 0.000000 -0.000000 0.000001 0.000000 5.921121 -0.713033 3.083934 9.018471 -0.421017 -0.454877 9.025358 -0.094396 -0.473342 15.500804 0.683413 0.851795 -2.570575 0.837383 5.719965 0.000002 0.000000 0.000000 0.000002 0.000000 0.000000 0.000002 0.000000 0.000000 0.682937 3.924065 -11.425495 74.279714 -65.233894 4.635998 0.000007 -18.066245 0.000001 -25.471766 7.330774 -3.951204 21.734258 5.841487 -2.497395 -16.162756 18.936384 19.036132 0.000001 0.000002 -0.000001 0.152615 1.444581 -12.061563 0.086637 1.091013 -9.079580 -0.000000 0.000000 -0.000005 0.152211 1.442690 -12.045574 0.086937 1.092919 -9.095575 -0.000001 -0.000001 0.000002 0.152623 1.444572 -12.061567 0.086629 1.091026 -9.079593 -0.000002 0.000000 -0.000000 0.985193 5.412792 -11.600964 0.078383 -2.964042 -9.583905 0.000003 0.000002 -0.000002 -0.000000 -0.000000 0.000000 1.413247 0.336095 10.799355 8.846320 40.120483 57.885034 0.000006 26.006529 0.000001 37.193057 -9.934888 12.879314 -0.389745 -6.638713 -15.665592 8.907285 -22.771340 0.157759 -0.000001 -0.000000 -0.000001 0.174544 -1.551245 12.839274 0.140304 -1.392663 11.506919 -0.000000 -0.000000 0.000003 0.174548 -1.551257 12.839289 0.140306 -1.392644 11.506923 0.000000 0.000000 -0.000000 0.174548 -1.551244 12.839285 0.140303 -1.392659 11.506930 -0.000000 -0.000001 0.000000 0.174546 -1.551239 12.839277 0.140305 -1.392657 11.506914 0.000001 -0.000000 0.000002 0.000002 0.000002 -0.000001 -0.000000 -0.000000 0.000000 -0.000000 -0.000000 0.000000 -0.000000 -0.000000 0.000000 -0.000000 -0.000000 0.000000 -0.000000 -0.000000 0.000000 -0.000000 -0.000000 0.000000 -0.000000 -0.000000 0.000000 -0.000000 -0.000000 0.000000 -0.000000 -0.000000 0.000000 -0.000000 -0.000000 -0.000000 -0.000000 -0.000000 -0.000000 -0.000001 -0.000000 -0.000000 
-0.374289 75.823303 2.620878 -13.187990 -1.837324 -5.088939 0.000000 0.000000 -0.000000 -31.983338 20.418984 12.020143 42.596601 -9.359314 10.043789 -0.854815 -7.864781 -1.353408 0.000000 -0.000000 -0.000000 0.000000 -0.000000 -0.000000 -0.000000 -0.000001 0.000000 -23.548636 -34.935038 -2.014407 39.485061 9.597737 -10.287364 -2.786599 6.523262 -4.954061 -0.000000 -0.000000 -0.000000 -0.000000 -0.000000 -0.000000 -0.000000 -0.000000 0.000001 5.920228 -0.709035 3.074986 9.015933 -0.413233 -0.454230 9.022703 -0.086283 -0.473040 15.501755 0.686838 0.839503 -2.569937 0.854904 5.720952 0.000002 0.000000 -0.000000 0.000002 0.000000 -0.000000 0.000002 0.000000 -0.000000 0.684057 3.939022 -11.452422 74.202472 -65.177811 4.592531 0.000004 -18.130773 -0.000010 -25.270467 7.391020 -4.135371 21.734263 5.841486 -2.497395 -16.162756 18.936387 19.036130 -0.000001 0.000002 0.000002 0.152620 1.444580 -12.061561 0.086642 1.091014 -9.079586 -0.000004 0.000000 -0.000004 0.152213 1.442688 -12.045574 0.086931 1.092917 -9.095573 0.000000 0.000000 0.000000 0.152628 1.444573 -12.061569 0.086626 1.091024 -9.079588 0.000001 0.000001 0.000001 0.985198 5.412792 -11.600966 0.078378 -2.964042 -9.583905 -0.000000 0.000001 -0.000000 -0.000000 -0.000000 -0.000000 1.414563 0.343949 10.791921 8.851293 40.106642 57.862726 -0.000012 26.024370 0.000035 37.255783 -9.909322 12.917786 -0.389743 -6.638713 -15.665596 8.907278 -22.771335 0.157761 0.000001 0.000004 0.000000 0.174544 -1.551245 12.839278 0.140303 -1.392662 11.506918 -0.000001 0.000000 0.000002 0.174547 -1.551258 12.839290 0.140306 -1.392645 11.506922 0.000001 0.000000 0.000002 0.174548 -1.551245 12.839285 0.140302 -1.392660 11.506930 -0.000001 -0.000001 0.000002 0.174546 -1.551239 12.839275 0.140308 -1.392656 11.506919 -0.000000 -0.000001 0.000002 -0.000002 -0.000001 0.000000 0.000000 -0.000000 0.000000 0.000000 -0.000000 0.000000 0.000000 -0.000000 0.000000 0.000000 -0.000000 0.000000 0.000000 -0.000000 -0.000000 0.000000 -0.000001 -0.000000 0.000000 -0.000000 0.000000 0.000000 -0.000000 -0.000000 0.000000 -0.000001 -0.000000 -0.000000 0.000000 -0.000000 -0.000000 0.000000 -0.000000 0.000000 0.000000 -0.000000 
-0.362554 75.823433 2.621681 -13.192142 -1.868926 -5.069733 0.000001 0.000000 -0.000000 -31.972672 20.472442 12.012975 42.590085 -9.360120 10.043861 -0.857494 -7.873337 -1.341484 0.000000 -0.000000 -0.000000 0.000000 -0.000000 -0.000000 0.000000 0.000001 -0.000000 -23.564921 -34.846109 -2.018060 39.499438 9.593177 -10.290825 -2.785285 6.499415 -4.928546 -0.000000 0.000000 0.000000 -0.000000 0.000000 0.000000 -0.000000 0.000002 0.000000 5.919388 -0.705453 3.063325 9.013794 -0.406900 -0.453622 9.020475 -0.079824 -0.472674 15.502865 0.690590 0.827108 -2.571727 0.869699 5.729453 -0.000001 -0.000000 -0.000000 -0.000001 -0.000000 -0.000000 -0.000001 -0.000000 -0.000000 0.685117 3.952921 -11.477673 74.095839 -65.119222 4.518438 0.000001 -18.201460 0.000016 -25.061827 7.453131 -4.314715 21.734260 5.841486 -2.497396 -16.162753 18.936380 19.036130 0.000000 -0.000001 0.000001 0.152619 1.444580 -12.061564 0.086636 1.091014 -9.079586 0.000001 0.000000 -0.000003 0.152215 1.442689 -12.045577 0.086931 1.092917 -9.095572 -0.000000 0.000001 0.000000 0.152626 1.444573 -12.061569 0.086631 1.091025 -9.079590 -0.000001 0.000001 -0.000004 0.985199 5.412792 -11.600968 0.078381 -2.964043 -9.583905 0.000002 0.000001 0.000002 -0.000000 0.000000 0.000001 1.416784 0.355710 10.790262 8.863888 40.086568 57.830611 0.000009 26.055135 -0.000001 37.317025 -9.887086 12.959782 -0.389743 -6.638711 -15.665594 8.907280 -22.771338 0.157759 0.000000 0.000001 -0.000001 0.174545 -1.551245 12.839277 0.140305 -1.392662 11.506916 -0.000001 0.000000 0.000000 0.174551 -1.551256 12.839287 0.140307 -1.392645 11.506926 -0.000001 -0.000000 -0.000000 0.174548 -1.551244 12.839285 0.140302 -1.392658 11.506924 0.000001 0.000000 -0.000001 0.174547 -1.551239 12.839277 0.140306 -1.392655 11.506911 0.000001 -0.000001 0.000000 -0.000000 -0.000001 0.000001 0.000000 0.000001 0.000000 0.000000 0.000001 0.000000 0.000000 0.000001 0.000000 0.000000 0.000001 0.000000 0.000000 0.000001 0.000000 0.000000 0.000001 -0.000000 0.000000 0.000001 0.000000 0.000000 0.000001 0.000000 0.000000 0.000001 -0.000000 -0.000000 0.000000 0.000000 -0.000000 0.000000 0.000000 0.000001 0.000000 -0.000000 
-0.352794 75.822601 2.622911 -13.196241 -1.895861 -5.049540 0.000000 0.000000 -0.000000 -31.962389 20.519309 12.003404 42.586742 -9.360784 10.043950 -0.861218 -7.879923 -1.331757 -0.000000 -0.000000 0.000000 -0.000000 -0.000000 0.000000 0.000000 -0.000000 -0.000000 -23.585644 -34.767425 -2.028312 39.519304 9.586683 -10.295800 -2.787323 6.490800 -4.904599 -0.000000 -0.000000 -0.000000 -0.000000 -0.000000 -0.000000 -0.000000 0.000000 -0.000000 5.918520 -0.702365 3.048867 9.011899 -0.402152 -0.453031 9.018515 -0.075171 -0.472220 15.504654 0.694576 0.815026 -2.576174 0.881121 5.745638 -0.000000 -0.000000 -0.000000 -0.000000 -0.000000 -0.000000 -0.000000 -0.000000 -0.000000 0.686102 3.965376 -11.500591 73.964726 -65.059765 4.417137 -0.000006 -18.276563 -0.000007 -24.852702 7.516682 -4.483117 21.734258 5.841486 -2.497395 -16.162751 18.936385 19.036133 -0.000001 0.000001 0.000002 0.152617 1.444580 -12.061562 0.086637 1.091013 -9.079583 0.000000 0.000000 -0.000003 0.152213 1.442689 -12.045574 0.086934 1.092917 -9.095573 0.000000 -0.000001 -0.000002 0.152624 1.444573 -12.061571 0.086628 1.091023 -9.079588 0.000003 0.000001 -0.000000 0.985196 5.412791 -11.600964 0.078380 -2.964041 -9.583908 0.000002 0.000002 -0.000000 -0.000000 -0.000000 0.000001 1.419722 0.370545 10.793311 8.882745 40.061201 57.791795 0.000004 26.096795 -0.000016 37.375249 -9.868408 13.004053 -0.389746 -6.638713 -15.665592 8.907279 -22.771335 0.157760 -0.000001 -0.000003 -0.000002 0.174545 -1.551244 12.839278 0.140306 -1.392663 11.506926 -0.000001 0.000001 -0.000002 0.174549 -1.551256 12.839287 0.140307 -1.392643 11.506923 -0.000003 0.000001 -0.000002 0.174548 -1.551245 12.839287 0.140301 -1.392658 11.506925 -0.000001 0.000000 0.000000 0.174546 -1.551238 12.839276 0.140307 -1.392656 11.506913 0.000000 0.000000 -0.000001 -0.000003 0.000001 -0.000002 -0.000000 -0.000000 -0.000000 -0.000000 -0.000000 -0.000000 -0.000000 -0.000000 -0.000000 -0.000000 -0.000000 -0.000000 -0.000000 -0.000000 -0.000000 -0.000001 -0.000000 -0.000000 -0.000000 -0.000000 -0.000000 -0.000000 -0.000000 -0.000000 -0.000001 -0.000000 -0.000000 0.000000 0.000000 -0.000000 0.000000 0.000000 -0.000000 0.000000 0.000000 -0.000000 
